<?xml version="1.0" standalone="no"?>
<!DOCTYPE svg PUBLIC "-//W3C//DTD SVG 20010904//EN"
 "http://www.w3.org/TR/2001/REC-SVG-20010904/DTD/svg10.dtd">
<svg version="1.0" xmlns="http://www.w3.org/2000/svg"
 width="390.000000pt" height="390.000000pt" viewBox="0 0 390.000000 390.000000"
 preserveAspectRatio="xMidYMid meet">
<metadata>
Created by potrace 1.11, written by Peter Selinger 2001-2013
</metadata>
<g transform="translate(0.000000,390.000000) scale(0.100000,-0.100000)"
fill="#000000" stroke="none">
<path d="M1710 3885 c-230 -32 -415 -88 -616 -185 -297 -145 -551 -363 -746
-640 -131 -186 -245 -441 -296 -665 -21 -92 -26 -117 -41 -240 -9 -73 -8 -425
1 -441 3 -5 8 -31 12 -59 3 -27 8 -59 10 -70 108 -532 412 -982 861 -1275 185
-120 484 -241 680 -274 17 -3 46 -8 65 -11 96 -17 191 -22 350 -19 165 3 200
6 268 19 15 3 43 8 62 11 136 22 349 94 502 171 487 244 851 683 1003 1207 14
49 28 103 30 120 3 17 10 54 15 81 5 28 12 66 15 85 3 19 8 118 9 220 3 143
-1 213 -15 310 -44 290 -149 564 -306 798 -89 132 -128 179 -257 307 -111 110
-180 167 -321 262 -96 64 -390 200 -470 217 -5 2 -30 8 -55 15 -213 61 -546
85 -760 56z"/>
</g>
</svg>
