<svg xmlns="http://www.w3.org/2000/svg" xmlns:xlink="http://www.w3.org/1999/xlink" width="831" height="694" viewBox="0 0 831 694">
  <defs>
    <path id="path-1" d="M457.414063,676.933594 C519.639591,722.345435 645.41005,668.678683 645.41005,557.204576 C645.41005,445.730469 724.729658,452.675917 750,400.636719 C799.312831,299.086837 686.855469,30.75 532,4.0390625 C377.144531,-22.671875 444,135.488281 316,112.539063 C188,89.5898438 184.91844,186.885698 154,254.230469 C123.08156,321.575239 68.1310622,264.789062 17,373.835937 C-20.7402012,454.324213 -0.744275181,617.927698 139.453125,647.855469 C237,668.678683 286.941176,552.523438 457.414063,676.933594 Z"/>
  </defs>
  <g id="Page-1" fill="none" fill-rule="evenodd">
    <g id="Desktop-HD-Copy-2" transform="translate(-531 -201)">
      <g id="Group-12" transform="translate(78 91)">
        <g id="mobile-bg" transform="translate(432 110)">
          <g id="illustration">
            <g id="bg" transform="translate(60)">
              <mask id="mask-2" fill="#fff">
                <use xlink:href="#path-1"/>
              </mask>
              <use id="Oval" fill="#1C2A7A" fill-rule="nonzero" xlink:href="#path-1"/>
              <g id="plants" mask="url(#mask-2)">
                <g transform="translate(-62 175)">
                  <g id="Big-Leaf-Plant" transform="rotate(-10 1001.631 87.631)">
                    <g id="Group-6" transform="translate(.876 .64)">
                      <g id="Big-Ass-Leaf">
                        <path id="leaf" fill="#E45471" d="M42.6664721,0.303256942 C47.7048766,-0.309889075 53.0823845,-0.0934510355 57.7679531,1.88753221 C67.7313356,6.10043589 70.5634429,17.8249748 70.4268142,27.3546924 C70.2795178,37.6117447 68.092799,48.8150389 75.9216227,57.0793941 C79.5203772,60.8788674 83.9969481,63.7865712 87.5306839,67.6558099 C91.3065383,71.7906132 94.2692487,76.5216502 96.4629142,81.6020329 C100.490744,90.933733 102.467674,101.907691 98.7844435,111.696706 C95.5414237,120.315359 87.3823488,128.094431 89.145327,137.894674 C90.9842683,148.118152 101.332114,155.934087 107.801632,163.548974 C115.123298,172.16664 121.864565,183.180807 122.972003,194.481972 C124.033925,205.312505 119.301029,216.266033 112.037551,224.453031 C97.5251047,240.812007 75.7106468,248.831718 53.7149779,248.782029 C44.3762157,248.760479 33.802841,248.340352 25.7437408,243.341485 C23.2529592,241.796372 21.9389118,240.062895 20.4582119,237.653116 C19.1306055,235.492246 17.3768477,234.08669 15.3469083,232.557658 C10.8871382,229.19923 7.66639299,224.672881 5.61099432,219.606107 C-2.37056303,199.926369 4.0087472,175.580119 15.1811209,158.104358 C17.8284802,153.963993 19.9959152,149.979721 18.7098173,145.044649 C17.3677351,139.893033 14.0691886,135.246555 11.1516616,130.818303 C8.26868122,126.441809 4.9773752,122.266693 2.72405586,117.534743 C0.364072609,112.577688 -0.300479766,107.386819 0.116502832,101.961736 C0.900193052,91.7710704 5.31657899,82.3670412 11.5692203,74.171496 C17.5916709,66.2773933 24.6630331,58.7239594 24.6788779,48.3803066 C24.6962777,37.4174436 17.3384213,27.6653007 20.4729768,16.5194558 C21.7708879,11.9041635 24.3777919,7.16884572 28.5790097,4.40190952 C32.6080562,1.74821424 37.9279127,0.879913474 42.6664721,0.303256942 Z"/>
                        <path id="middle-thing" fill="#F68FA4" d="M39.800102,18.5700787 C39.894048,17.0999466 41.6374479,16.2182161 43.0098902,16.60184 C44.8164024,17.1070436 44.7816599,18.7954652 44.7339657,20.2997167 C44.5877619,24.9234277 45.2568205,29.41692 46.3679829,33.9032309 C48.6774143,43.2307705 52.9455542,51.8245657 56.3269916,60.784407 C59.7054818,69.7367476 61.2914164,78.9797686 59.3094523,88.452623 C57.4410514,97.3842039 54.5057364,106.084288 52.5936084,115.027143 C50.9082227,122.909121 49.1148916,131.221108 51.6815186,139.083015 C54.1512449,146.650672 59.6114698,152.813701 63.5433052,159.65265 C71.6826582,173.809709 75.2936406,189.515275 75.7766258,205.677687 C76.0004582,213.18289 75.7988916,220.757108 74.0582398,228.118079 C73.0563788,232.356545 71.7100462,238.084644 68.0789446,241.010893 C66.4045507,242.36034 63.5408052,242.826958 62.1315494,240.82858 C60.8084633,238.954261 61.9691696,236.052626 62.3892039,234.054895 C64.2082572,225.407043 64.5742097,216.569281 64.1387022,207.788292 C63.7172014,199.282749 62.7125408,190.791412 60.0363348,182.668266 C57.5524566,175.12987 53.7789861,168.358925 49.3378389,161.76443 C44.8123411,155.044179 40.1076888,148.30959 38.2377692,140.346784 C36.3378759,132.259399 37.8813486,124.030226 39.9451833,116.097293 C42.1277389,107.706487 44.9865452,99.556389 47.9420413,91.3929279 C50.8222737,83.4382438 51.843175,75.9116979 50.253166,67.5861968 C47.1121797,51.1377812 38.7046831,35.6991013 39.800102,18.5700787 Z"/>
                      </g>
                      <g id="Big-Ass-Leaf" transform="translate(40.674 75.956)">
                        <path id="leaf" fill="#E45471" d="M99.9171029,1.74177686 C103.813923,2.92660936 107.684198,4.8382853 110.462029,7.83584817 C116.368622,14.2102643 114.556317,23.8444686 111.295648,30.8811931 C107.78594,38.454902 102.467386,46.067721 105.465556,54.7576478 C106.843584,58.7526159 109.160862,62.3707463 110.46809,66.3963855 C111.864733,70.6981874 112.467549,75.1782809 112.390747,79.6675701 C112.248564,87.9130494 110.058288,96.7110874 104.111739,102.785758 C98.8760397,108.1341 90.3150041,111.257974 88.3571488,119.114204 C86.3146139,127.309659 91.308105,136.486541 93.5252122,144.251297 C96.0344285,153.038634 97.3233801,163.417757 94.3871942,172.175836 C91.5737264,180.569386 84.4714963,187.167609 76.4317031,190.886192 C60.3677338,198.316923 41.7166253,197.173588 25.6088781,189.975155 C18.7701175,186.918559 11.1584945,183.163821 6.90852474,176.825392 C5.59505648,174.866305 5.20668016,173.15038 4.92043111,170.877658 C4.66385952,168.839737 3.84439288,167.224315 2.86341848,165.427221 C0.707938753,161.479643 -0.151918158,157.067633 0.0217288617,152.633474 C0.697484391,135.411436 13.4483098,119.397588 27.4341724,110.049528 C30.7479991,107.83491 33.6582429,105.580022 34.3521577,101.494201 C35.0768492,97.229245 34.1997994,92.7026406 33.5296872,88.4622472 C32.8677344,84.2715615 31.8396662,80.0975673 31.7571812,75.8477642 C31.6711602,71.395965 32.9055423,67.3224368 35.0104351,63.427006 C38.9646435,56.1098289 45.3209631,50.5599336 52.6225836,46.5058832 C59.6554868,42.6008773 67.3443269,39.2905232 70.7863938,31.6096654 C74.4349603,23.4691999 72.2754613,13.8270897 78.2697872,6.56556279 C80.7518911,3.5586794 84.2333764,0.888800596 88.2307855,0.200647528 C92.064426,-0.459416857 96.2521899,0.627456006 99.9171029,1.74177686 Z"/>
                        <path id="middle-thing" fill="#F68FA4" d="M91.9570523,15.2031072 C92.5099377,14.1385558 94.0815128,14.0566489 94.9639952,14.7953048 C96.1255031,15.7677648 95.5442906,17.0145177 95.014171,18.1197538 C93.385001,21.5171175 92.3979005,25.086403 91.738107,28.7961902 C90.3657358,36.5089869 90.6744864,44.3211882 90.2110465,52.113638 C89.747909,59.8995261 87.8715878,67.3106525 83.297242,73.7159756 C78.9845031,79.755406 73.9637766,85.2703423 69.6151882,91.3037481 C65.7823997,96.6213904 61.7287512,102.223865 61.0277721,108.92932 C60.3524122,115.383532 62.3373285,121.777599 62.9764354,128.171137 C64.2995769,141.406233 61.7847637,154.301337 56.8205384,166.504935 C54.515014,172.171669 51.8741107,177.749491 48.1721705,182.660645 C46.0408857,185.488637 43.1661629,189.313061 39.5342663,190.29578 C37.8594798,190.748995 35.6010751,190.15195 35.2229672,188.197832 C34.8673648,186.36459 36.6754349,184.585212 37.6416314,183.235072 C41.824722,177.390796 45.0022934,170.925612 47.5721124,164.238326 C50.0615734,157.760925 52.1177406,151.101721 52.8241563,144.165439 C53.4794847,137.728363 52.9343943,131.437748 51.840494,125.058353 C50.7259841,118.557416 49.4845155,111.986689 50.7307772,105.435893 C51.9960088,98.7823714 55.838758,93.1591797 59.9664742,87.9284183 C64.3321401,82.3956166 69.115627,77.2652903 73.9745782,72.1569046 C78.7095004,67.1792699 81.9369206,61.9072777 83.5082818,55.1785444 C86.6130189,41.8849226 85.514588,27.6062977 91.9570523,15.2031072 Z"/>
                      </g>
                    </g>
                  </g>
                  <g id="plants-right" transform="translate(673)">
                    <path id="Leaf" fill="#6E82F5" d="M129.280554,135.870862 C130.782078,140.862124 130.091948,156.685275 125.312662,162.902114 C140.87003,187.893062 151.584858,213.218511 154.495983,242.944991 C154.846341,246.534694 156.563319,258.427663 150.702492,252.251731 C147.496982,248.875323 148.139333,231.379444 147.231667,226.702326 C144.120992,210.677407 137.343522,195.69074 129.447291,181.496956 C126.423728,176.062393 123.244427,170.691244 119.977151,165.362884 C119.091554,165.216041 118.144271,164.860077 117.119733,164.223236 C112.330746,161.244727 107.686338,147.496753 104.760071,142.652873 C102.765753,139.351782 100.682777,136.131446 98.542499,132.951782 C93.2504156,125.434662 87.8554296,118.010717 82.4171734,110.694492 C82.431772,110.687164 82.4475229,110.683368 82.4609394,110.676423 C77.178875,103.546544 71.7999974,96.4844411 65.9871659,89.8387142 C66.0674189,89.9324912 54.7303339,74.4130059 52.2764913,78.5444423 C50.0491829,82.2966897 61.0928732,90.723624 62.965079,92.9253227 C82.9674031,114.824762 99.5512128,141.079312 113.744797,167.089519 C98.5910428,169.126077 86.2967833,163.675832 76.47246,151.415433 C69.9011146,143.213744 66.852124,131.884601 61.6227998,122.837301 C55.0853988,111.522887 47.0797708,105.029696 35.0365655,100.108661 C13.6628056,91.3710875 2.53706168,76.7437979 0.347011047,53.021288 C-1.41967484,33.8814133 3.28530273,12.5066258 20.806182,2.09090026 C32.1949547,-3.50676468 46.8519533,3.06098846 55.3678857,10.8780799 C67.0637409,21.6125808 70.8169342,37.2915996 74.504146,52.0873512 C80.7744918,77.2449206 90.2366413,87.8783661 107.82965,105.076414 C116.866872,113.910576 125.57289,123.552187 129.280554,135.870862 Z"/>
                    <g id="Big-Ass-Leaf" transform="matrix(-1 0 0 1 181 24)">
                      <path id="leaf" fill="#E45471" d="M16.6324706,-1.56319402e-13 C24.0003325,-1.56319402e-13 30.4779149,3.86239927 34.9413617,9.34327233 C40.1662501,15.7594128 41.2215162,23.5947959 43.3431712,31.2416928 C44.3989008,35.0472328 46.2146816,38.8250148 49.3967007,41.4105434 C52.2909199,43.7619195 55.9651185,44.2324633 59.4293761,45.3812887 C66.3527934,47.6771486 71.9433405,53.2077175 74.1511965,59.9560593 C76.8447436,68.1876662 73.9917711,76.489116 74.4830237,84.8313074 C74.9339565,92.4925311 82.5720072,97.2722893 88.717299,100.944859 C94.7768533,104.56639 100.235782,107.956455 102.060831,115.011478 C103.996181,122.494065 104.645469,130.846107 101.964898,138.237808 C97.5019148,150.545373 84.4406208,155.964909 71.8200639,156.805262 C60.3664636,157.567713 45.9648843,156.370535 37.3633297,148.14833 C32.2163002,143.227991 30.3523211,136.346679 30.5835806,129.500289 C30.7272488,125.243009 31.5799891,121.025127 32.6825267,116.911114 C33.4638964,113.995175 34.519626,111.091772 34.8204024,108.07868 C35.6198464,100.062422 28.1282445,98.522745 21.7512299,96.3217997 C13.6478795,93.524504 7.97483903,88.2410713 4.0299881,80.8802614 C0.356252978,74.0267077 -1.18516786,66.3332489 1.01712674,58.7875346 C2.14190977,54.9345373 4.18199833,51.438813 6.94876996,48.4655669 C8.16670561,47.1569089 9.88330897,46.0653904 10.9826025,44.6904712 C12.0086716,43.4064372 11.7852907,41.7427447 11.4316815,40.2388848 C9.7966446,33.2922073 4.702448,27.5400216 2.88064243,20.60588 C1.23587317,14.3468859 2.20818253,6.55716932 7.99430376,2.5192675 C10.4941306,0.774539323 13.5769723,0.0192515554 16.6324706,-1.56319402e-13 Z"/>
                      <path id="middle-thing" fill="#F68FA4" d="M26.6721141,18.0999697 C34.4812586,26.3265795 36.6038784,37.4883542 37.2268261,48.306738 C37.5757688,54.3731632 37.2125742,60.7717868 39.0147552,66.6559954 C40.5567233,71.6922476 44.1716593,75.5420772 47.8978524,79.1805892 C55.3985113,86.5050701 63.7634815,93.9513273 65.957361,104.551678 C67.2446332,110.772562 66.3757245,117.198048 68.1544587,123.350433 C69.7718242,128.942737 72.6194541,134.436993 76.0831356,139.159403 C78.8719187,142.962223 82.5052443,145.873659 85.5537806,149.418601 C86.4838347,150.500708 87.8161614,152.093648 87.4322785,153.621223 C86.9831124,155.410259 84.6788953,155.976608 83.0440597,155.695448 C79.2323549,155.040453 76.0238291,151.440892 73.5315783,148.824046 C69.887219,144.997498 66.79041,140.88173 64.2733332,136.264979 C61.4790332,131.137842 59.2290654,125.697311 58.267749,119.945176 C57.2701131,113.977694 57.7666323,107.758601 55.4886204,102.031537 C51.6553078,92.395099 42.3575251,86.708329 35.6352061,79.1976021 C27.2596619,69.838742 28.5087756,58.1907579 29.3666505,46.6784288 C29.8378841,40.351886 30.3063592,33.2073832 27.0739269,27.4310718 C25.8399846,25.2261165 23.0889002,23.1702476 22.5583601,20.6639857 C22.0724149,18.3676982 24.7246552,16.0472346 26.6721141,18.0999697 Z"/>
                    </g>
                  </g>
                </g>
              </g>
              <path id="Oval-Copy" fill="#2E377A" fill-rule="nonzero" d="M182.5,634 C252.916306,634 544.251351,626.43085 625,605.21875 C707.246094,583.613281 848.128906,351.695313 743.84375,326.96875 C639.558594,302.242187 472.804688,353.34375 414,437.171875 C355.195312,521 248.642647,471 182.5,471 C112.083694,471 -0.860080061,518.082543 -0.860080061,563.09375 C-0.860080061,608.104957 112.083694,634 182.5,634 Z" mask="url(#mask-2)"/>
              <path id="Oval-Copy-3" fill="#273176" fill-rule="nonzero" d="M212.5,684 C282.916306,684 574.251351,676.43085 655,655.21875 C737.246094,633.613281 878.128906,401.695313 773.84375,376.96875 C669.558594,352.242187 502.804688,403.34375 444,487.171875 C385.195312,571 278.642647,521 212.5,521 C142.083694,521 29.1399199,568.082543 29.1399199,613.09375 C29.1399199,658.104957 142.083694,684 212.5,684 Z" mask="url(#mask-2)"/>
              <path id="Oval" fill="#202967" fill-rule="nonzero" d="M212.5,754 C282.916306,754 574.251351,746.43085 655,725.21875 C737.246094,703.613281 878.128906,471.695313 773.84375,446.96875 C669.558594,422.242187 502.804688,473.34375 444,557.171875 C385.195312,641 278.642647,591 212.5,591 C142.083694,591 85,627.488793 85,672.5 C85,717.511207 142.083694,754 212.5,754 Z" mask="url(#mask-2)"/>
            </g>
            <g id="plants-outside" transform="translate(0 323)">
              <g id="Big-Leaf-Plant" transform="rotate(-10 153.307 7.916)">
                <g id="Group-6" transform="translate(.876 .64)">
                  <g id="Big-Ass-Leaf">
                    <path id="leaf" fill="#E45471" d="M39.6664721,0.303256942 C44.7048766,-0.309889075 50.0823845,-0.0934510356 54.7679531,1.88753221 C64.7313356,6.10043589 67.5634429,17.8249748 67.4268142,27.3546924 C67.2795178,37.6117447 65.092799,48.8150389 72.9216227,57.0793941 C76.5203772,60.8788674 80.9969481,63.7865712 84.5306839,67.6558099 C88.3065383,71.7906132 91.2692487,76.5216502 93.4629142,81.6020329 C97.4907445,90.933733 99.4676739,101.907691 95.7844435,111.696706 C93.2901562,118.325526 65.2996456,130.001275 40.6215355,146.149645 C34.9235489,149.87818 45.0506961,170.944207 43.5787684,181.913032 C43.1370698,185.204576 40.8507513,193.719849 38.4590396,193.095003 C-3.60555772,182.105422 -2.65108528,113.398879 4.05591964,92.6113682 C10.7629246,71.8238572 21.6630331,58.7239594 21.6788779,48.3803066 C21.6962777,37.4174436 14.3384213,27.6653007 17.4729768,16.5194558 C18.7708879,11.9041635 21.3777919,7.16884572 25.5790097,4.40190952 C29.6080562,1.74821424 34.9279127,0.879913474 39.6664721,0.303256942 Z"/>
                    <path id="middle-thing" fill="#F68FA4" d="M36.800102,18.5700787 C36.894048,17.0999466 38.6374479,16.2182161 40.0098902,16.60184 C41.8164024,17.1070436 41.7816599,18.7954652 41.7339657,20.2997167 C41.5877619,24.9234277 42.2568205,29.41692 43.3679829,33.9032309 C45.6774143,43.2307705 49.9455542,51.8245657 53.3269916,60.784407 C56.7054818,69.7367476 58.2914164,78.9797686 56.3094523,88.452623 C54.4410514,97.3842039 51.5057364,106.084288 49.5936084,115.027143 C47.9082227,122.909121 46.1148916,131.221108 48.6815186,139.083015 C51.1512449,146.650672 56.6114698,152.813701 60.5433052,159.65265 C68.6826582,173.809709 50.7789861,168.358925 46.3378389,161.76443 C41.8123411,155.044179 37.1076888,148.30959 35.2377692,140.346784 C33.3378759,132.259399 34.8813486,124.030226 36.9451833,116.097293 C39.1277389,107.706487 41.9865452,99.556389 44.9420413,91.3929279 C47.8222737,83.4382438 48.843175,75.9116979 47.253166,67.5861968 C44.1121797,51.1377812 35.7046831,35.6991013 36.800102,18.5700787 Z"/>
                  </g>
                </g>
              </g>
            </g>
          </g>
          <g id="plants-right" transform="translate(671 175)">
            <path id="Leaf" fill="#6E82F5" d="M129.280554,135.870862 C130.782078,140.862124 107.722043,147.004891 104.795776,142.161011 C102.801458,138.85992 100.682777,136.131446 98.542499,132.951782 C93.2504156,125.434662 87.8554296,118.010717 82.4171734,110.694492 C82.431772,110.687164 82.4475229,110.683368 82.4609394,110.676423 C77.178875,103.546544 71.7999974,96.4844411 65.9871659,89.8387142 C66.0674189,89.9324912 54.7303339,74.4130059 52.2764913,78.5444423 C50.0491829,82.2966897 61.0928732,90.723624 62.965079,92.9253227 C82.9674031,114.824762 66.852124,131.884601 61.6227998,122.837301 C55.0853988,111.522887 47.0797708,105.029696 35.0365655,100.108661 C13.6628056,91.3710875 2.53706168,76.7437979 0.347011047,53.021288 C-1.41967484,33.8814133 3.28530273,12.5066258 20.806182,2.09090026 C32.1949547,-3.50676468 46.8519533,3.06098846 55.3678857,10.8780799 C67.0637409,21.6125808 70.8169342,37.2915996 74.504146,52.0873512 C80.7744918,77.2449206 90.2366413,87.8783661 107.82965,105.076414 C116.866872,113.910576 125.57289,123.552187 129.280554,135.870862 Z"/>
            <g id="Big-Ass-Leaf" transform="matrix(-1 0 0 1 181 24)">
              <path id="leaf" fill="#E45471" d="M16.6324706,-1.56319402e-13 C24.0003325,-1.56319402e-13 30.4779149,3.86239927 34.9413617,9.34327233 C40.1662501,15.7594128 41.2215162,23.5947959 43.3431712,31.2416928 C44.3989008,35.0472328 46.2146816,38.8250148 49.3967007,41.4105434 C52.2909199,43.7619195 55.9651185,44.2324633 59.4293761,45.3812887 C66.3527934,47.6771486 71.9433405,53.2077175 74.1511965,59.9560593 C76.8447436,68.1876662 73.9917711,76.489116 74.4830237,84.8313074 C74.9339565,92.4925311 82.5720072,97.2722893 88.717299,100.944859 C94.7768533,104.56639 100.235782,107.956455 102.060831,115.011478 C103.996181,122.494065 31.5799891,121.025127 32.6825267,116.911114 C33.4638964,113.995175 34.519626,111.091772 34.8204024,108.07868 C35.6198464,100.062422 28.1282445,98.522745 21.7512299,96.3217997 C13.6478795,93.524504 7.97483903,88.2410713 4.0299881,80.8802614 C0.356252978,74.0267077 -1.18516786,66.3332489 1.01712674,58.7875346 C2.14190977,54.9345373 4.18199833,51.438813 6.94876996,48.4655669 C8.16670561,47.1569089 9.88330897,46.0653904 10.9826025,44.6904712 C12.0086716,43.4064372 11.7852907,41.7427447 11.4316815,40.2388848 C9.7966446,33.2922073 4.702448,27.5400216 2.88064243,20.60588 C1.23587317,14.3468859 2.20818253,6.55716932 7.99430376,2.5192675 C10.4941306,0.774539323 13.5769723,0.0192515554 16.6324706,-1.56319402e-13 Z"/>
              <path id="middle-thing" fill="#F68FA4" d="M26.6721141,18.0999697 C34.4812586,26.3265795 36.6038784,37.4883542 37.2268261,48.306738 C37.5757688,54.3731632 37.2125742,60.7717868 39.0147552,66.6559954 C40.5567233,71.6922476 44.1716593,75.5420772 47.8978524,79.1805892 C55.3985113,86.5050701 63.7634815,93.9513273 65.957361,104.551678 C67.2446332,110.772562 66.4460449,114.283936 67.5270996,120.54126 C68.6081543,126.798584 59.2290654,125.697311 58.267749,119.945176 C57.2701131,113.977694 57.7666323,107.758601 55.4886204,102.031537 C51.6553078,92.395099 42.3575251,86.708329 35.6352061,79.1976021 C27.2596619,69.838742 28.5087756,58.1907579 29.3666505,46.6784288 C29.8378841,40.351886 30.3063592,33.2073832 27.0739269,27.4310718 C25.8399846,25.2261165 23.0889002,23.1702476 22.5583601,20.6639857 C22.0724149,18.3676982 24.7246552,16.0472346 26.6721141,18.0999697 Z"/>
            </g>
          </g>
        </g>
      </g>
    </g>
  </g>
</svg>
