<svg xmlns="http://www.w3.org/2000/svg" width="375" height="131" viewBox="0 0 375 131">
  <g id="Page-1" fill="none" fill-rule="evenodd">
    <g id="boring-app-chatbot">
      <g id="screen_header">
        <rect id="header_bg" width="375" height="131" fill="#FFF"/>
        <g id="Notch/Top/White-Status-Bar">
          <g id="Status-Bar-Black">
            <polygon id="Base" points="0 0 375 0 375 34.839 375 44 0 44"/>
            <g id="Battery" transform="translate(336 17)">
              <path id="Border" stroke="#00110B" d="M2.66666675,0.5 C1.47004974,0.5 0.5,1.47004974 0.5,2.66666675 L0.5,8.33333325 C0.5,9.52995026 1.47004974,10.5 2.66666675,10.5 L19.3333333,10.5 C20.5299503,10.5 21.5,9.52995026 21.5,8.33333325 L21.5,2.66666675 C21.5,1.47004974 20.5299503,0.5 19.3333333,0.5 L2.66666675,0.5 Z" opacity=".35"/>
              <path id="Cap" fill="#00110B" fill-rule="nonzero" d="M23,4 L23,8 C23.6059549,7.66122348 24,6.87313328 24,6 C24,5.12686672 23.6059549,4.33877652 23,4" opacity=".4"/>
              <rect id="Capacity" width="20" height="9" x="1" y="1" fill="#4A4A4A" fill-rule="nonzero" rx="1.333"/>
            </g>
            <path id="Wifi" fill="#4A4A4A" fill-rule="nonzero" d="M323.330333,19.608 C325.546226,19.6080971 327.677386,20.4595347 329.283333,21.9863333 C329.404265,22.1042079 329.597562,22.102721 329.716667,21.983 L330.872667,20.8163333 C330.932975,20.7556112 330.966599,20.6733595 330.966098,20.5877792 C330.965598,20.5021988 330.931014,20.420346 330.87,20.3603333 C326.654902,16.3207858 320.005098,16.3207858 315.79,20.3603333 C315.728941,20.4203015 315.694297,20.5021294 315.693734,20.5877099 C315.693171,20.6732903 315.726736,20.755567 315.787,20.8163333 L316.943333,21.983 C317.062362,22.1029017 317.255808,22.1043897 317.376667,21.9863333 C318.982819,20.4594344 321.114223,19.6079944 323.330333,19.608 Z M323.330333,23.4036667 C324.547823,23.4035921 325.721865,23.8561245 326.624333,24.6733333 C326.746397,24.7893139 326.938678,24.7867994 327.057667,24.6676667 L328.212333,23.501 C328.273141,23.439805 328.30688,23.3567887 328.306003,23.2705239 C328.305126,23.1842592 328.269706,23.101946 328.207667,23.042 C325.459468,20.4856177 321.203532,20.4856177 318.455333,23.042 C318.393256,23.1019453 318.357837,23.1842997 318.357023,23.2705923 C318.356208,23.356885 318.390065,23.4398934 318.451,23.501 L319.605333,24.6676667 C319.724322,24.7867994 319.916603,24.7893139 320.038667,24.6733333 C320.940539,23.8566645 322.113649,23.4041708 323.330333,23.4036667 Z M325.549333,26.188 C325.611087,26.127394 325.645095,26.0439919 325.643328,25.957485 C325.641561,25.8709782 325.604176,25.7890342 325.54,25.731 C324.264428,24.6521162 322.396238,24.6521162 321.120667,25.731 C321.056446,25.7889875 321.019,25.8709057 321.01717,25.957413 C321.01534,26.0439203 321.049289,26.1273487 321.111,26.188 L323.108667,28.2036667 C323.167217,28.2629057 323.247042,28.2962443 323.330333,28.2962443 C323.413624,28.2962443 323.49345,28.2629057 323.552,28.2036667 L325.549333,26.188 Z"/>
          </g>
          <path id="Combined-Shape" fill="#00110B" d="M188,-1.0658141e-14 L188,29.9883705 C154.620903,29.9407781 121.097667,29.8938356 108.001465,29.8938356 C91.9442873,29.8938356 83.5380506,21.6993204 82.7827548,5.31029 C82.6458144,2.33876265 80.1967866,-5.46440047e-16 77.2221055,0 L188,0 Z M37.565135,7.0525419e-21 C16.8261643,7.0525419e-21 0,16.8054055 0,37.5359237 L0,0 L37.565135,0 Z"/>
          <path id="Combined-Shape" fill="#00110B" d="M375,-1.0658141e-14 L375,29.9883705 C341.620903,29.9407781 308.097667,29.8938356 295.001465,29.8938356 C278.944287,29.8938356 270.538051,21.6993204 269.782755,5.31029 C269.645814,2.33876265 267.196787,-5.46440047e-16 264.222105,0 L375,0 Z M224.565135,7.0525419e-21 C203.826164,7.0525419e-21 187,16.8054055 187,37.5359237 L187,0 L224.565135,0 Z" transform="matrix(-1 0 0 1 562 0)"/>
          <path id="Cellular-Connection" fill="#4A4A4A" fill-rule="nonzero" d="M34,24.6666667 L35,24.6666667 C35.5522847,24.6666667 36,25.1143819 36,25.6666667 L36,27.6666667 C36,28.2189514 35.5522847,28.6666667 35,28.6666667 L34,28.6666667 C33.4477153,28.6666667 33,28.2189514 33,27.6666667 L33,25.6666667 C33,25.1143819 33.4477153,24.6666667 34,24.6666667 Z M38.6666667,22.6666667 L39.6666667,22.6666667 C40.2189514,22.6666667 40.6666667,23.1143819 40.6666667,23.6666667 L40.6666667,27.6666667 C40.6666667,28.2189514 40.2189514,28.6666667 39.6666667,28.6666667 L38.6666667,28.6666667 C38.1143819,28.6666667 37.6666667,28.2189514 37.6666667,27.6666667 L37.6666667,23.6666667 C37.6666667,23.1143819 38.1143819,22.6666667 38.6666667,22.6666667 Z M43.3333333,20.3333333 L44.3333333,20.3333333 C44.8856181,20.3333333 45.3333333,20.7810486 45.3333333,21.3333333 L45.3333333,27.6666667 C45.3333333,28.2189514 44.8856181,28.6666667 44.3333333,28.6666667 L43.3333333,28.6666667 C42.7810486,28.6666667 42.3333333,28.2189514 42.3333333,27.6666667 L42.3333333,21.3333333 C42.3333333,20.7810486 42.7810486,20.3333333 43.3333333,20.3333333 Z M48,18 L49,18 C49.5522847,18 50,18.4477153 50,19 L50,27.6666667 C50,28.2189514 49.5522847,28.6666667 49,28.6666667 L48,28.6666667 C47.4477153,28.6666667 47,28.2189514 47,27.6666667 L47,19 C47,18.4477153 47.4477153,18 48,18 Z"/>
        </g>
      </g>
    </g>
  </g>
</svg>
